<svg class="w-6 h-6" width="24" height="24" viewBox="0 0 24 24" fill="none" xmlns="http://www.w3.org/2000/svg"><path d="M21 9C21 8.73478 20.8946 8.48051 20.707 8.29297C20.5429 8.12883 20.3276 8.02757 20.0986 8.00488L20 8H17C16.7033 8 16.4214 7.86856 16.2314 7.64062L14.0312 5H9.96875L7.76855 7.64062C7.57856 7.86856 7.29674 8 7 8H4C3.73478 8 3.48051 8.10543 3.29297 8.29297C3.10543 8.48051 3 8.73478 3 9V18C3 18.2652 3.10543 18.5195 3.29297 18.707C3.48051 18.8946 3.73478 19 4 19H20C20.2652 19 20.5195 18.8946 20.707 18.707C20.8946 18.5195 21 18.2652 21 18V9ZM23 18C23 18.7957 22.6837 19.5585 22.1211 20.1211C21.5585 20.6837 20.7957 21 20 21H4C3.20435 21 2.44152 20.6837 1.87891 20.1211C1.3163 19.5585 1 18.7956 1 18V9C1 8.20435 1.3163 7.44152 1.87891 6.87891C2.44152 6.3163 3.20435 6 4 6H6.53125L8.73145 3.35938L8.80762 3.2793C8.99282 3.10135 9.24033 3 9.5 3H14.5L14.6104 3.00586C14.8656 3.03418 15.1023 3.15991 15.2686 3.35938L17.4688 6H20L20.2969 6.01465C20.9835 6.08291 21.6289 6.38671 22.1211 6.87891C22.6837 7.44152 23 8.20435 23 9V18Z" fill="#686583" style="fill-opacity:1;"/><path d="M14 13C14 11.8954 13.1046 11 12 11C10.8954 11 10 11.8954 10 13C10 14.1046 10.8954 15 12 15C13.1046 15 14 14.1046 14 13ZM16 13C16 15.2091 14.2091 17 12 17C9.79086 17 8 15.2091 8 13C8 10.7909 9.79086 9 12 9C14.2091 9 16 10.7909 16 13Z" fill="#686583" style="fill-opacity:1;"/></svg>