<svg class="w-6 h-6" width="24" height="24" viewBox="0 0 24 24" fill="none" xmlns="http://www.w3.org/2000/svg"><path d="M9 4C9 3.45228 8.54772 3 8 3H4C3.45228 3 3 3.45228 3 4V8C3 8.54772 3.45228 9 4 9C4.55228 9 5 9.44772 5 10C5 10.5523 4.55228 11 4 11C2.34772 11 1 9.65228 1 8V4C1 2.34772 2.34772 1 4 1H8C9.65228 1 11 2.34772 11 4C11 4.55228 10.5523 5 10 5C9.44772 5 9 4.55228 9 4Z" fill="#686583" style="fill-opacity:1;"/><path d="M15 10C15 9.45228 14.5477 9 14 9H10C9.45228 9 9 9.45228 9 10V14C9 14.5477 9.45228 15 10 15C10.5523 15 11 15.4477 11 16C11 16.5523 10.5523 17 10 17C8.34772 17 7 15.6523 7 14V10C7 8.34772 8.34772 7 10 7H14C15.6523 7 17 8.34772 17 10C17 10.5523 16.5523 11 16 11C15.4477 11 15 10.5523 15 10Z" fill="#686583" style="fill-opacity:1;"/><path d="M21 16C21 15.4477 20.5523 15 20 15H16C15.4477 15 15 15.4477 15 16V20C15 20.5523 15.4477 21 16 21H20C20.5523 21 21 20.5523 21 20V16ZM23 20C23 21.6569 21.6569 23 20 23H16C14.3431 23 13 21.6569 13 20V16C13 14.3431 14.3431 13 16 13H20C21.6569 13 23 14.3431 23 16V20Z" fill="#686583" style="fill-opacity:1;"/></svg>