<svg class="w-6 h-6" width="24" height="24" viewBox="0 0 24 24" fill="none" xmlns="http://www.w3.org/2000/svg"><path d="M12.0002 3.99963C12.4297 3.99966 12.8545 4.09189 13.2453 4.27014L13.2443 4.27112L21.8156 8.17346L21.8147 8.17444C22.1632 8.32627 22.4622 8.57366 22.675 8.88928C22.8936 9.21358 23.0117 9.59491 23.0158 9.98596C23.0199 10.3772 22.9094 10.7615 22.6975 11.0905C22.4873 11.4166 22.1863 11.6734 21.8322 11.8317L21.8332 11.8326L13.2434 15.7311C12.9018 15.8866 12.5342 15.9757 12.1604 15.9957L12.0002 16.0006C11.6244 16.0006 11.2524 15.9296 10.9035 15.7926L10.7551 15.7301L2.18477 11.8219V11.8209C1.83498 11.6644 1.53717 11.4114 1.32735 11.0905C1.11465 10.7651 1.00117 10.3844 1.00117 9.99573C1.00123 9.60717 1.11476 9.22723 1.32735 8.90198C1.53745 8.58058 1.8353 8.32601 2.18575 8.16956L10.7551 4.27112V4.27014C11.1459 4.09189 11.5706 3.99963 12.0002 3.99963ZM3.01485 10.0026L11.5852 13.9098L11.6848 13.9489C11.7863 13.9826 11.8928 14.0006 12.0002 14.0006L12.1066 13.9948C12.2131 13.9833 12.3174 13.9544 12.4152 13.9098H12.4172L21.007 10.0114L21.0168 10.0074C21.0068 10.0033 20.9964 9.99828 20.9865 9.99377L12.4152 6.09045V6.08948C12.285 6.03008 12.1433 5.99966 12.0002 5.99963C11.8929 5.99963 11.7862 6.01673 11.6848 6.05042L11.5852 6.08948L11.5842 6.09045L3.01387 9.98987L3.00117 9.99573L3.01485 10.0026Z" fill="#686583" style="fill-opacity:1;"/><path d="M21 16V10C21 9.44772 21.4477 9 22 9C22.5523 9 23 9.44772 23 10V16C23 16.5523 22.5523 17 22 17C21.4477 17 21 16.5523 21 16Z" fill="#686583" style="fill-opacity:1;"/><path d="M5 16V12.5C5 11.9477 5.44772 11.5 6 11.5C6.55228 11.5 7 11.9477 7 12.5V16L7.01074 16.0967C7.06328 16.3502 7.32825 16.7885 8.2041 17.2266C9.15862 17.7038 10.5239 18 12 18L12.5479 17.9863C13.8109 17.9232 14.9607 17.6442 15.7959 17.2266C16.7968 16.726 17 16.225 17 16V12.5C17 11.9477 17.4477 11.5 18 11.5C18.5523 11.5 19 11.9477 19 12.5V16C19 17.3662 17.9386 18.3911 16.6895 19.0156C15.4745 19.623 13.9156 19.9568 12.3193 19.9961L12 20C10.2936 20 8.60643 19.6635 7.31055 19.0156C6.13943 18.4301 5.13377 17.4927 5.0127 16.252L5 16Z" fill="#686583" style="fill-opacity:1;"/></svg>