<svg class="w-6 h-6" width="24" height="24" viewBox="0 0 24 24" fill="none" xmlns="http://www.w3.org/2000/svg"><path d="M21 7C21 4.79086 19.2091 3 17 3H7C4.79086 3 3 4.79086 3 7V17C3 19.2091 4.79086 21 7 21H17C19.2091 21 21 19.2091 21 17V7ZM23 17C23 20.3137 20.3137 23 17 23H7C3.68629 23 1 20.3137 1 17V7C1 3.68629 3.68629 1 7 1H17C20.3137 1 23 3.68629 23 7V17Z" fill="#686583" style="fill-opacity:1;"/><path d="M9.74052 7.51826C10.6739 7.03399 11.7365 6.85622 12.7766 7.01045L12.9749 7.04463C13.9599 7.23142 14.8673 7.71051 15.5784 8.42158C16.337 9.18014 16.8322 10.1622 16.9895 11.2233L17.014 11.4187C17.1198 12.3959 16.9357 13.3844 16.4817 14.2595C15.9974 15.1929 15.2306 15.9497 14.2913 16.4226C13.352 16.8953 12.2875 17.0602 11.2493 16.8933C10.211 16.7262 9.25175 16.2355 8.50809 15.4919C7.76444 14.7482 7.27381 13.789 7.10673 12.7507C6.93975 11.7125 7.10467 10.648 7.57743 9.70869C8.05026 8.76939 8.80709 8.0026 9.74052 7.51826ZM12.4837 8.98897C11.8595 8.89641 11.2215 9.00303 10.6614 9.29365C10.1013 9.58428 9.64726 10.0445 9.36356 10.6081C9.07991 11.1717 8.98111 11.8104 9.08134 12.4333C9.18158 13.0563 9.47597 13.6316 9.92216 14.0778C10.3683 14.524 10.9437 14.8184 11.5667 14.9187C12.1896 15.0189 12.8283 14.9201 13.3919 14.6364C13.9555 14.3527 14.4157 13.8987 14.7063 13.3386C14.9606 12.8486 15.0739 12.2993 15.0364 11.7517L15.011 11.5163C14.9166 10.8797 14.6194 10.2907 14.1643 9.83564C13.7662 9.43748 13.2655 9.16018 12.72 9.03389L12.4837 8.98897Z" fill="#686583" style="fill-opacity:1;"/><path d="M17.5098 5.5L17.6123 5.50488C18.1165 5.55611 18.5098 5.98224 18.5098 6.5C18.5098 7.01776 18.1165 7.44389 17.6123 7.49512L17.5098 7.5H17.5C16.9477 7.5 16.5 7.05228 16.5 6.5C16.5 5.94772 16.9477 5.5 17.5 5.5H17.5098Z" fill="#686583" style="fill-opacity:1;"/></svg>