<svg class="w-6 h-6" width="24" height="24" viewBox="0 0 24 24" fill="none" xmlns="http://www.w3.org/2000/svg"><path d="M15 20V4C15 3.73478 14.8946 3.48051 14.707 3.29297C14.5429 3.12883 14.3276 3.02757 14.0986 3.00488L14 3H10C9.73478 3 9.48051 3.10543 9.29297 3.29297C9.10543 3.48051 9 3.73478 9 4V20C9 20.5523 8.55228 21 8 21C7.44772 21 7 20.5523 7 20V4C7 3.20435 7.3163 2.44152 7.87891 1.87891C8.44152 1.3163 9.20435 1 10 1H14L14.2969 1.01465C14.9835 1.08291 15.6289 1.38671 16.1211 1.87891C16.6837 2.44152 17 3.20435 17 4V20C17 20.5523 16.5523 21 16 21C15.4477 21 15 20.5523 15 20Z" fill="#686583" style="fill-opacity:1;"/><path d="M21 8C21 7.44772 20.5523 7 20 7H4C3.44772 7 3 7.44772 3 8V18C3 18.5523 3.44772 19 4 19H20C20.5523 19 21 18.5523 21 18V8ZM23 18C23 19.6569 21.6569 21 20 21H4C2.34315 21 1 19.6569 1 18V8C1 6.34315 2.34315 5 4 5H20C21.6569 5 23 6.34315 23 8V18Z" fill="#686583" style="fill-opacity:1;"/></svg>