<svg class="w-6 h-6" width="24" height="24" viewBox="0 0 24 24" fill="none" xmlns="http://www.w3.org/2000/svg"><path d="M17 4C17 3.73478 16.8946 3.48051 16.707 3.29297C16.5195 3.10543 16.2652 3 16 3H8C7.73478 3 7.48051 3.10543 7.29297 3.29297C7.10543 3.48051 7 3.73478 7 4V21H17V4ZM19 22C19 22.5523 18.5523 23 18 23H6C5.44772 23 5 22.5523 5 22V4C5 3.20435 5.3163 2.44152 5.87891 1.87891C6.44152 1.3163 7.20435 1 8 1H16C16.7956 1 17.5585 1.3163 18.1211 1.87891C18.6837 2.44152 19 3.20435 19 4V22Z" fill="#686583" style="fill-opacity:1;"/><path d="M1 20V14C1 13.2044 1.3163 12.4415 1.87891 11.8789C2.44152 11.3163 3.20435 11 4 11H6C6.55228 11 7 11.4477 7 12C7 12.5523 6.55228 13 6 13H4C3.73478 13 3.48051 13.1054 3.29297 13.293C3.10543 13.4805 3 13.7348 3 14V20L3.00488 20.0986C3.02757 20.3276 3.12883 20.5429 3.29297 20.707C3.48051 20.8946 3.73478 21 4 21H6C6.55228 21 7 21.4477 7 22C7 22.5523 6.55228 23 6 23H4C3.20435 23 2.44152 22.6837 1.87891 22.1211C1.3163 21.5585 1 20.7956 1 20Z" fill="#686583" style="fill-opacity:1;"/><path d="M21 20V11C21 10.7348 20.8946 10.4805 20.707 10.293C20.5195 10.1054 20.2652 10 20 10H18C17.4477 10 17 9.55228 17 9C17 8.44772 17.4477 8 18 8H20C20.7957 8 21.5585 8.3163 22.1211 8.87891C22.6837 9.44151 23 10.2043 23 11V20C23 20.7957 22.6837 21.5585 22.1211 22.1211C21.5585 22.6837 20.7957 23 20 23H18C17.4477 23 17 22.5523 17 22C17 21.4477 17.4477 21 18 21H20C20.2652 21 20.5195 20.8946 20.707 20.707C20.8946 20.5195 21 20.2652 21 20Z" fill="#686583" style="fill-opacity:1;"/><path d="M14 5C14.5523 5 15 5.44772 15 6C15 6.55228 14.5523 7 14 7H10C9.44772 7 9 6.55228 9 6C9 5.44772 9.44772 5 10 5H14Z" fill="#686583" style="fill-opacity:1;"/><path d="M14 9C14.5523 9 15 9.44772 15 10C15 10.5523 14.5523 11 14 11H10C9.44772 11 9 10.5523 9 10C9 9.44772 9.44772 9 10 9H14Z" fill="#686583" style="fill-opacity:1;"/><path d="M14 13C14.5523 13 15 13.4477 15 14C15 14.5523 14.5523 15 14 15H10C9.44772 15 9 14.5523 9 14C9 13.4477 9.44772 13 10 13H14Z" fill="#686583" style="fill-opacity:1;"/><path d="M14 17C14.5523 17 15 17.4477 15 18C15 18.5523 14.5523 19 14 19H10C9.44772 19 9 18.5523 9 18C9 17.4477 9.44772 17 10 17H14Z" fill="#686583" style="fill-opacity:1;"/></svg>