<svg class="w-6 h-6" width="24" height="24" viewBox="0 0 24 24" fill="none" xmlns="http://www.w3.org/2000/svg"><path d="M9 3V5H15V3H9ZM17 5C17 6.10457 16.1046 7 15 7H9C7.89543 7 7 6.10457 7 5V3C7 1.89543 7.89543 1 9 1H15C16.1046 1 17 1.89543 17 3V5Z" fill="#686583" style="fill-opacity:1;"/><path d="M3 20V6C3 5.20435 3.3163 4.44152 3.87891 3.87891C4.44152 3.3163 5.20435 3 6 3H8C8.55228 3 9 3.44772 9 4C9 4.55228 8.55228 5 8 5H6C5.73478 5 5.48051 5.10543 5.29297 5.29297C5.10543 5.48051 5 5.73478 5 6V20L5.00488 20.0986C5.02757 20.3276 5.12883 20.5429 5.29297 20.707C5.48051 20.8946 5.73478 21 6 21H18C18.2652 21 18.5195 20.8946 18.707 20.707C18.8946 20.5195 19 20.2652 19 20V6C19 5.73478 18.8946 5.48051 18.707 5.29297C18.5429 5.12883 18.3276 5.02757 18.0986 5.00488L18 5H16C15.4477 5 15 4.55228 15 4C15 3.44772 15.4477 3 16 3H18L18.2969 3.01465C18.9835 3.08291 19.6289 3.38671 20.1211 3.87891C20.6837 4.44152 21 5.20435 21 6V20C21 20.7957 20.6837 21.5585 20.1211 22.1211C19.5585 22.6837 18.7957 23 18 23H6C5.20435 23 4.44152 22.6837 3.87891 22.1211C3.38671 21.6289 3.08291 20.9835 3.01465 20.2969L3 20Z" fill="#686583" style="fill-opacity:1;"/></svg>