<svg class="w-6 h-6" width="24" height="24" viewBox="0 0 24 24" fill="none" xmlns="http://www.w3.org/2000/svg"><path d="M12.1226 1.00463C12.3659 1.0245 12.6004 1.10396 12.8062 1.2351L12.9068 1.30444L13.0015 1.38256C13.1833 1.5454 13.3221 1.75038 13.4068 1.97924L13.4449 2.09545L13.4507 2.11498L15.0318 8.25072H15.0308C15.0755 8.42361 15.1663 8.58149 15.2925 8.70776C15.4188 8.83398 15.5767 8.92385 15.7496 8.9685L21.8843 10.5496L21.9009 10.5544C22.1778 10.6308 22.4258 10.7846 22.6168 10.9968L22.6959 11.0915L22.7662 11.1921C22.9198 11.4325 23.0025 11.7127 23.0025 11.9997C23.0025 12.328 22.8947 12.6477 22.6959 12.9089C22.5219 13.1374 22.2862 13.3107 22.0181 13.4089L21.9009 13.446C21.8955 13.4475 21.8898 13.4485 21.8843 13.4499L15.7496 15.031C15.5766 15.0756 15.4189 15.1664 15.2925 15.2927C15.1664 15.4189 15.0755 15.5761 15.0308 15.7488L15.0318 15.7497L13.4498 21.8845L13.4439 21.904C13.3557 22.2193 13.1666 22.4972 12.9058 22.6951C12.645 22.8929 12.3269 23.0007 11.9996 23.0007C11.6723 23.0007 11.3541 22.8928 11.0933 22.6951C10.8652 22.522 10.6912 22.2882 10.5923 22.0212L10.5552 21.904C10.5534 21.8975 10.5511 21.8911 10.5494 21.8845L8.96832 15.7497C8.92369 15.5768 8.83383 15.419 8.70758 15.2927C8.61271 15.1979 8.50001 15.1231 8.37653 15.073L8.25055 15.031L2.11578 13.449L2.09235 13.4431C1.77835 13.354 1.50203 13.1644 1.30524 12.904C1.13303 12.6762 1.02947 12.4048 1.00641 12.1218L1.00153 11.9997L1.00641 11.8777C1.02955 11.5948 1.13313 11.3232 1.30524 11.0955L1.38239 11.0017C1.57142 10.7898 1.81755 10.6354 2.09235 10.5574L2.11481 10.5505L8.25055 8.96752L8.37653 8.92553C8.49992 8.87546 8.61275 8.80154 8.70758 8.70678C8.83366 8.58078 8.92351 8.42323 8.96832 8.25072L10.5504 2.11498L10.5562 2.09545C10.6444 1.78025 10.8335 1.50226 11.0943 1.30444L11.1939 1.2351C11.4342 1.08187 11.7139 0.999748 12.0005 0.999748L12.1226 1.00463ZM10.9048 8.74975V8.75072C10.7707 9.26938 10.5006 9.74313 10.1216 10.1218C9.78998 10.4532 9.3854 10.7009 8.94196 10.8474L8.74957 10.904L4.50348 11.9988L8.74957 13.0945L8.94196 13.1511C9.3857 13.2978 9.78987 13.5469 10.1216 13.8787C10.5005 14.2576 10.7709 14.7309 10.9048 15.2497L10.9058 15.2507L11.9986 19.4958L13.0943 15.2507V15.2497L13.1509 15.0574C13.2976 14.6139 13.5469 14.2103 13.8785 13.8787C14.2576 13.4996 14.7314 13.2284 15.2505 13.0945L19.4976 11.9997L15.2505 10.905C14.7315 10.7711 14.2575 10.5008 13.8785 10.1218C13.5467 9.79007 13.2976 9.38583 13.1509 8.94213L13.0943 8.74975L11.9996 4.50268L10.9048 8.74975Z" fill="#686583" style="fill-opacity:1;"/><path d="M19 7V3C19 2.44772 19.4477 2 20 2C20.5523 2 21 2.44772 21 3V7C21 7.55228 20.5523 8 20 8C19.4477 8 19 7.55228 19 7Z" fill="#686583" style="fill-opacity:1;"/><path d="M22 4C22.5523 4 23 4.44772 23 5C23 5.55228 22.5523 6 22 6H18C17.4477 6 17 5.55228 17 5C17 4.44772 17.4477 4 18 4H22Z" fill="#686583" style="fill-opacity:1;"/><path d="M3 19V17C3 16.4477 3.44772 16 4 16C4.55228 16 5 16.4477 5 17V19C5 19.5523 4.55228 20 4 20C3.44772 20 3 19.5523 3 19Z" fill="#686583" style="fill-opacity:1;"/><path d="M5 17C5.55228 17 6 17.4477 6 18C6 18.5523 5.55228 19 5 19H3C2.44772 19 2 18.5523 2 18C2 17.4477 2.44772 17 3 17H5Z" fill="#686583" style="fill-opacity:1;"/></svg>