<svg id="Layer_1" data-name="Layer 1" xmlns="http://www.w3.org/2000/svg" viewBox="0 0 1080 1080"><defs><style>.cls-1{fill:#c39132;}.cls-2{fill:#045238;}.cls-3{fill:#021f15;}.cls-4{fill:#624919;}</style></defs><polygon class="cls-1" points="738.42 467.88 738.42 425.45 634.91 365.67 634.91 714.29 644.29 708.9 738.42 654.55 738.42 580.44 675.72 580.44 675.72 502.17 821.62 502.17 821.62 702.6 739.51 749.99 644.29 804.95 634.91 810.38 557.58 855.02 557.58 224.98 634.91 269.58 739.51 330.01 821.62 377.4 821.62 467.88 738.42 467.88"/><path class="cls-2" d="M443.31,366.68l79.11-45.43V225l-79.11,45.65L338.72,331,258.38,377.4V702.6L338.72,749l97,56,7.56,4.38L522.42,855V329.72l-79.11,45.44v127H341.58V425.45Zm0,213.76V713.28l-7.56-4.38-94.17-54.35V580.44Z"/><polygon class="cls-3" points="522.42 321.25 522.42 329.72 443.31 375.16 443.31 366.68 522.42 321.25"/><polygon class="cls-4" points="634.91 365.67 634.91 374.14 557.58 329.72 557.58 321.25 634.91 365.67"/><polygon class="cls-3" points="443.31 713.28 443.31 809.37 435.75 804.99 435.75 708.9 443.31 713.28"/><polygon class="cls-4" points="634.9 714.25 634.9 810.34 642.47 805.96 642.47 709.87 634.9 714.25"/></svg>